<svg xmlns="http://www.w3.org/2000/svg" viewBox="0 0 1200 750" width="1200" height="750" role="img">
<defs><linearGradient id="gcathalloween" x1="0" y1="0" x2="1" y2="1"><stop offset="0" stop-color="#ff7a1a"/><stop offset="1" stop-color="#2b1640"/></linearGradient>
<pattern id="dcathalloween" width="28" height="28" patternUnits="userSpaceOnUse"><circle cx="2" cy="2" r="1.6" fill="#fff" opacity=".18"/></pattern>
<filter id="scathalloween" x="-30%" y="-30%" width="160%" height="160%"><feDropShadow dx="0" dy="14" stdDeviation="14" flood-color="#000" flood-opacity=".28"/></filter></defs>
<rect width="1200" height="750" fill="url(#gcathalloween)"/><rect width="1200" height="750" fill="url(#dcathalloween)"/>
<circle cx="744" cy="390" r="345" fill="#fff" opacity=".12"/><circle cx="434" cy="632" r="172" fill="#c6ff3d" opacity=".22"/>
<circle cx="978" cy="115" r="9.4" fill="#c6ff3d" opacity="0.60"/><circle cx="982" cy="703" r="6.1" fill="#ffffff" opacity="0.64"/><circle cx="1166" cy="355" r="9.6" fill="#c6ff3d" opacity="0.62"/><path d="M810 231l9 16h-18z" fill="#ffffff" opacity="0.40" transform="rotate(104 810 231)"/><circle cx="266" cy="455" r="12.6" fill="#c6ff3d" opacity="0.65"/><rect x="154" y="544" width="15" height="6" rx="3" fill="#ff7a1a" opacity="0.47" transform="rotate(282 154 544)"/><rect x="1156" y="619" width="22" height="8" rx="3" fill="#c6ff3d" opacity="0.63" transform="rotate(19 1156 619)"/><path d="M660 210l16 28h-33z" fill="#ffffff" opacity="0.63" transform="rotate(230 660 210)"/><path d="M485 226l10 16h-19z" fill="#c6ff3d" opacity="0.69" transform="rotate(55 485 226)"/><circle cx="1051" cy="208" r="9.7" fill="#ffffff" opacity="0.47"/><path d="M923 247l14 24h-29z" fill="#ffffff" opacity="0.50" transform="rotate(342 923 247)"/><circle cx="85" cy="31" r="12.5" fill="#ffffff" opacity="0.42"/><path d="M174 76l18 31h-36z" fill="#ff7a1a" opacity="0.58" transform="rotate(232 174 76)"/><path d="M869 27l15 26h-30z" fill="#ffffff" opacity="0.57" transform="rotate(177 869 27)"/><path d="M971 142l20 34h-40z" fill="#ffffff" opacity="0.68" transform="rotate(18 971 142)"/><path d="M1091 554l10 18h-21z" fill="#c6ff3d" opacity="0.49" transform="rotate(165 1091 554)"/><circle cx="775" cy="429" r="9.4" fill="#ffffff" opacity="0.52"/><rect x="847" y="618" width="16" height="6" rx="3" fill="#c6ff3d" opacity="0.51" transform="rotate(190 847 618)"/><rect x="666" y="271" width="32" height="12" rx="3" fill="#c6ff3d" opacity="0.58" transform="rotate(338 666 271)"/><circle cx="757" cy="303" r="6.6" fill="#ff7a1a" opacity="0.50"/><circle cx="49" cy="333" r="4.1" fill="#ffffff" opacity="0.49"/><rect x="518" y="123" width="26" height="10" rx="3" fill="#ffffff" opacity="0.58" transform="rotate(247 518 123)"/><rect x="214" y="183" width="16" height="6" rx="3" fill="#ffffff" opacity="0.40" transform="rotate(9 214 183)"/><path d="M96 480l22 37h-44z" fill="#ff7a1a" opacity="0.35" transform="rotate(169 96 480)"/><circle cx="586" cy="340" r="8.8" fill="#ffffff" opacity="0.36"/><circle cx="920" cy="39" r="9.1" fill="#c6ff3d" opacity="0.68"/>
<g filter="url(#scathalloween)" transform="translate(512 157) rotate(1.7 233 233) scale(4.650)" color="#fff" fill="#fff"><path d="M22 90V44a28 28 0 0156 0v46l-9-8-9 8-10-8-10 8-9-8z" fill="currentColor"/><ellipse cx="40" cy="46" rx="5" ry="7" fill="#c6ff3d"/><ellipse cx="60" cy="46" rx="5" ry="7" fill="#c6ff3d"/></g>
</svg>