<svg xmlns="http://www.w3.org/2000/svg" viewBox="0 0 1200 750" width="1200" height="750" role="img">
<defs><linearGradient id="gpaperpumpkin" x1="0" y1="0" x2="1" y2="1"><stop offset="0" stop-color="#ff7a1a"/><stop offset="1" stop-color="#2b1640"/></linearGradient>
<pattern id="dpaperpumpkin" width="28" height="28" patternUnits="userSpaceOnUse"><circle cx="2" cy="2" r="1.6" fill="#fff" opacity=".18"/></pattern>
<filter id="spaperpumpkin" x="-30%" y="-30%" width="160%" height="160%"><feDropShadow dx="0" dy="14" stdDeviation="14" flood-color="#000" flood-opacity=".28"/></filter></defs>
<rect width="1200" height="750" fill="url(#gpaperpumpkin)"/><rect width="1200" height="750" fill="url(#dpaperpumpkin)"/>
<circle cx="744" cy="390" r="345" fill="#fff" opacity=".12"/><circle cx="434" cy="632" r="172" fill="#c6ff3d" opacity=".22"/>
<rect x="1024" y="192" width="11" height="4" rx="3" fill="#ffffff" opacity="0.64" transform="rotate(205 1024 192)"/><rect x="549" y="345" width="25" height="10" rx="3" fill="#ff7a1a" opacity="0.54" transform="rotate(302 549 345)"/><circle cx="324" cy="697" r="9.6" fill="#ffffff" opacity="0.55"/><circle cx="495" cy="653" r="10.6" fill="#ffffff" opacity="0.29"/><path d="M1014 692l14 24h-28z" fill="#ffffff" opacity="0.60" transform="rotate(48 1014 692)"/><circle cx="429" cy="227" r="7.4" fill="#ff7a1a" opacity="0.60"/><rect x="592" y="241" width="23" height="9" rx="3" fill="#ff7a1a" opacity="0.51" transform="rotate(260 592 241)"/><circle cx="389" cy="702" r="6.7" fill="#ff7a1a" opacity="0.56"/><path d="M370 320l15 25h-29z" fill="#c6ff3d" opacity="0.35" transform="rotate(19 370 320)"/><path d="M7 285l17 28h-33z" fill="#c6ff3d" opacity="0.44" transform="rotate(102 7 285)"/><rect x="858" y="238" width="28" height="11" rx="3" fill="#ffffff" opacity="0.31" transform="rotate(205 858 238)"/><rect x="341" y="271" width="22" height="9" rx="3" fill="#ff7a1a" opacity="0.60" transform="rotate(149 341 271)"/><rect x="466" y="576" width="27" height="10" rx="3" fill="#ff7a1a" opacity="0.61" transform="rotate(272 466 576)"/><rect x="549" y="14" width="16" height="6" rx="3" fill="#ff7a1a" opacity="0.28" transform="rotate(157 549 14)"/><rect x="142" y="511" width="34" height="13" rx="3" fill="#c6ff3d" opacity="0.70" transform="rotate(289 142 511)"/><path d="M447 487l17 29h-34z" fill="#ffffff" opacity="0.50" transform="rotate(82 447 487)"/><path d="M155 289l20 34h-40z" fill="#ffffff" opacity="0.47" transform="rotate(77 155 289)"/><circle cx="704" cy="701" r="4.8" fill="#ffffff" opacity="0.67"/><rect x="1173" y="627" width="21" height="8" rx="3" fill="#c6ff3d" opacity="0.48" transform="rotate(330 1173 627)"/><rect x="275" y="206" width="17" height="7" rx="3" fill="#ff7a1a" opacity="0.52" transform="rotate(326 275 206)"/><rect x="431" y="326" width="37" height="14" rx="3" fill="#ffffff" opacity="0.43" transform="rotate(9 431 326)"/><path d="M469 633l13 23h-27z" fill="#c6ff3d" opacity="0.33" transform="rotate(192 469 633)"/><path d="M305 318l20 34h-40z" fill="#ffffff" opacity="0.61" transform="rotate(114 305 318)"/><rect x="1041" y="322" width="20" height="8" rx="3" fill="#ffffff" opacity="0.27" transform="rotate(72 1041 322)"/><path d="M69 526l15 25h-30z" fill="#ffffff" opacity="0.41" transform="rotate(345 69 526)"/><rect x="973" y="729" width="22" height="9" rx="3" fill="#c6ff3d" opacity="0.32" transform="rotate(338 973 729)"/>
<g filter="url(#spaperpumpkin)" transform="translate(512 157) rotate(8.5 233 233) scale(4.650)" color="#fff" fill="#fff"><path d="M48 22c0-8 4-12 10-14" stroke="#c6ff3d" stroke-width="6" fill="none" stroke-linecap="round"/><ellipse cx="34" cy="58" rx="20" ry="30" fill="currentColor"/><ellipse cx="66" cy="58" rx="20" ry="30" fill="currentColor"/><ellipse cx="50" cy="58" rx="18" ry="32" fill="currentColor" stroke="#c6ff3d" stroke-width="3"/></g>
</svg>