<svg xmlns="http://www.w3.org/2000/svg" viewBox="0 0 1200 750" width="1200" height="750" role="img">
<defs><linearGradient id="gvalentinemas" x1="0" y1="0" x2="1" y2="1"><stop offset="0" stop-color="#ff4d8d"/><stop offset="1" stop-color="#a3124a"/></linearGradient>
<pattern id="dvalentinemas" width="28" height="28" patternUnits="userSpaceOnUse"><circle cx="2" cy="2" r="1.6" fill="#fff" opacity=".18"/></pattern>
<filter id="svalentinemas" x="-30%" y="-30%" width="160%" height="160%"><feDropShadow dx="0" dy="14" stdDeviation="14" flood-color="#000" flood-opacity=".28"/></filter></defs>
<rect width="1200" height="750" fill="url(#gvalentinemas)"/><rect width="1200" height="750" fill="url(#dvalentinemas)"/>
<circle cx="744" cy="390" r="345" fill="#fff" opacity=".12"/><circle cx="434" cy="632" r="172" fill="#ffe1ec" opacity=".22"/>
<circle cx="169" cy="195" r="9.8" fill="#ffe1ec" opacity="0.37"/><circle cx="896" cy="486" r="6.0" fill="#ffffff" opacity="0.52"/><circle cx="529" cy="601" r="7.7" fill="#ffe1ec" opacity="0.53"/><path d="M481 201l16 27h-32z" fill="#ffffff" opacity="0.42" transform="rotate(55 481 201)"/><path d="M211 743l11 18h-21z" fill="#ffe1ec" opacity="0.36" transform="rotate(217 211 743)"/><circle cx="1021" cy="39" r="8.8" fill="#ffffff" opacity="0.51"/><circle cx="687" cy="700" r="10.4" fill="#ffffff" opacity="0.36"/><rect x="262" y="564" width="22" height="8" rx="3" fill="#ff4d8d" opacity="0.65" transform="rotate(61 262 564)"/><path d="M1152 168l8 14h-17z" fill="#ffe1ec" opacity="0.63" transform="rotate(111 1152 168)"/><rect x="428" y="512" width="15" height="6" rx="3" fill="#ffe1ec" opacity="0.28" transform="rotate(94 428 512)"/><path d="M282 462l19 33h-38z" fill="#ff4d8d" opacity="0.40" transform="rotate(265 282 462)"/><path d="M122 325l7 11h-13z" fill="#ffffff" opacity="0.61" transform="rotate(213 122 325)"/><rect x="511" y="359" width="16" height="6" rx="3" fill="#ffffff" opacity="0.43" transform="rotate(245 511 359)"/><circle cx="799" cy="469" r="5.3" fill="#ffffff" opacity="0.54"/><path d="M991 109l22 37h-44z" fill="#ffe1ec" opacity="0.67" transform="rotate(340 991 109)"/><circle cx="1097" cy="382" r="5.0" fill="#ffffff" opacity="0.45"/><circle cx="862" cy="227" r="10.5" fill="#ffe1ec" opacity="0.37"/><rect x="9" y="620" width="37" height="14" rx="3" fill="#ffffff" opacity="0.65" transform="rotate(39 9 620)"/><path d="M685 603l12 20h-23z" fill="#ffe1ec" opacity="0.44" transform="rotate(57 685 603)"/><rect x="129" y="589" width="21" height="8" rx="3" fill="#ffe1ec" opacity="0.45" transform="rotate(248 129 589)"/><circle cx="435" cy="372" r="10.9" fill="#ffe1ec" opacity="0.39"/><path d="M550 662l12 20h-23z" fill="#ffe1ec" opacity="0.42" transform="rotate(328 550 662)"/><path d="M764 308l11 18h-21z" fill="#ffffff" opacity="0.55" transform="rotate(143 764 308)"/><path d="M593 214l10 17h-20z" fill="#ffe1ec" opacity="0.51" transform="rotate(297 593 214)"/><path d="M476 505l6 11h-13z" fill="#ffffff" opacity="0.52" transform="rotate(260 476 505)"/><circle cx="289" cy="90" r="9.9" fill="#ffe1ec" opacity="0.63"/>
<g filter="url(#svalentinemas)" transform="translate(512 157) rotate(-0.4 233 233) scale(4.650)" color="#fff" fill="#fff"><rect x="34" y="10" width="32" height="10" rx="3" fill="#ffe1ec"/><path d="M30 24h40c4 0 6 3 6 7v50c0 5-4 9-9 9H33c-5 0-9-4-9-9V31c0-4 2-7 6-7z" fill="currentColor"/><path d="M50 44c6 7 8 12 8 17a8 8 0 01-16 0c0-5 2-10 8-17z" fill="#ffe1ec"/></g>
</svg>