<svg xmlns="http://www.w3.org/2000/svg" viewBox="0 0 720 480" role="img" aria-label="Line-art living room to color in: a window with curtains, a sofa with cushions, a rug, a plant, framed art and a coffee table"><path class="cz" d="M0 0 H720 V330 H0Z" fill="#fff" stroke="#1d1a24" stroke-width="3" stroke-linejoin="round" /><path class="cz" d="M0 330 H720 V480 H0Z" fill="#fff" stroke="#1d1a24" stroke-width="3" stroke-linejoin="round" /><path class="cz" d="M60 60 H260 V250 H60Z" fill="#fff" stroke="#1d1a24" stroke-width="3" stroke-linejoin="round" /><path class="cz" d="M66 66 H156 V150 H66Z" fill="#fff" stroke="#1d1a24" stroke-width="3" stroke-linejoin="round" /><path class="cz" d="M164 66 H254 V150 H164Z" fill="#fff" stroke="#1d1a24" stroke-width="3" stroke-linejoin="round" /><path class="cz" d="M66 158 H156 V244 H66Z" fill="#fff" stroke="#1d1a24" stroke-width="3" stroke-linejoin="round" /><path class="cz" d="M164 158 H254 V244 H164Z" fill="#fff" stroke="#1d1a24" stroke-width="3" stroke-linejoin="round" /><path class="cz" d="M40 60 Q30 160 50 300 L70 300 Q56 160 60 60Z" fill="#fff" stroke="#1d1a24" stroke-width="3" stroke-linejoin="round" /><path class="cz" d="M280 60 Q290 160 270 300 L250 300 Q264 160 260 60Z" fill="#fff" stroke="#1d1a24" stroke-width="3" stroke-linejoin="round" /><path class="cz" d="M330 210 Q470 160 610 210 L600 330 L340 330Z" fill="#fff" stroke="#1d1a24" stroke-width="3" stroke-linejoin="round" /><path class="cz" d="M310 300 H630 V360 H310Z" fill="#fff" stroke="#1d1a24" stroke-width="3" stroke-linejoin="round" /><path class="cz" d="M300 250 Q290 250 290 270 V370 H330 V260Z" fill="#fff" stroke="#1d1a24" stroke-width="3" stroke-linejoin="round" /><path class="cz" d="M640 250 Q650 250 650 270 V370 H610 V260Z" fill="#fff" stroke="#1d1a24" stroke-width="3" stroke-linejoin="round" /><path class="cz" d="M380 230 Q420 214 450 236 L440 290 Q408 294 384 286Z" fill="#fff" stroke="#1d1a24" stroke-width="3" stroke-linejoin="round" /><path class="cz" d="M490 236 Q520 214 560 230 L556 286 Q532 294 500 290Z" fill="#fff" stroke="#1d1a24" stroke-width="3" stroke-linejoin="round" /><path class="cz" d="M180 420 m-110 0 a110 34 0 1 0 220 0 a110 34 0 1 0 -220 0" fill="#fff" stroke="#1d1a24" stroke-width="3" stroke-linejoin="round" /><path class="cz" d="M150 418 m-60 0 a60 18 0 1 0 120 0 a60 18 0 1 0 -120 0" fill="#fff" stroke="#1d1a24" stroke-width="3" stroke-linejoin="round" /><path class="cz" d="M670 330 L700 330 L690 410 L680 410Z" fill="#fff" stroke="#1d1a24" stroke-width="3" stroke-linejoin="round" /><path class="cz" d="M660 220 Q690 150 720 220 Q690 250 660 220Z" fill="#fff" stroke="#1d1a24" stroke-width="3" stroke-linejoin="round" /><path class="cz" d="M645 260 Q610 200 650 170 Q670 230 645 260Z" fill="#fff" stroke="#1d1a24" stroke-width="3" stroke-linejoin="round" /><path class="cz" d="M520 60 a40 40 0 1 0 80 0 a40 40 0 1 0 -80 0" fill="#fff" stroke="#1d1a24" stroke-width="3" stroke-linejoin="round" /><path class="cz" d="M360 60 H470 V150 H360Z" fill="#fff" stroke="#1d1a24" stroke-width="3" stroke-linejoin="round" /><path class="cz" d="M374 74 H456 V136 H374Z" fill="#fff" stroke="#1d1a24" stroke-width="3" stroke-linejoin="round" /><path class="cz" d="M460 400 H580 V420 H460Z" fill="#fff" stroke="#1d1a24" stroke-width="3" stroke-linejoin="round" /><path class="cz" d="M470 420 H482 V470 H470Z" fill="#fff" stroke="#1d1a24" stroke-width="3" stroke-linejoin="round" /><path class="cz" d="M558 420 H570 V470 H558Z" fill="#fff" stroke="#1d1a24" stroke-width="3" stroke-linejoin="round" /><path d="M560 60 L560 40 M560 60 L580 66" stroke="#1d1a24" stroke-width="3" stroke-linecap="round" pointer-events="none"/></svg>
